<svg version="1.2" xmlns="http://www.w3.org/2000/svg" viewBox="200 174 228 359" width="228" height="359">
	<title>liverpool-fc-seeklogo</title>
	<style>
		.s0 { fill: #ffffff } 
	</style>
	<g id="Capa 1">
		<path id="&lt;Compound Path&gt;" fill-rule="evenodd" class="s0" d="m336.9 509.9c-1.6-0.8-2.7-2.4-3.8-4.1-7.9-14-8.2-33-11-51.8 3.6 2.7 10 6.2 16 3.8-10.9-8.6-19.1-23-16-43.1-10.9-9.9-24.6-20.6-31.5-34.8-2.4-4.9-5-11.3-2.9-17.3 5.5 16.5 14.9 27.1 27 38.2 12.9 11.9 28.1 24.1 25.8 50 3.4-1.7 3.8-6.8 4.1-10.6 2.5-32.9-22.5-45.4-38.5-60.3-5.1-4.8-10.4-10.6-11.9-17.6 5.2 3.3 10.4 9.6 17.6 13.9 11.6 6.9 26.9 9.1 38.1 2.5 3.3-2 7.8-4.2 8.2-7.9-11.9 0.6-21-1.1-29.4-3.6-5.7-1.7-12.1-3.6-15.2-7.3 9.8-1 17.9-3.5 20.5-11.6-6.3 0.2-15 1.4-19.3-1.6 11.6-2 23.1-3.9 25.8-14.8-8.4 0.3-16.8 4.8-25.4 2.1 10.9-4.2 25.3-4.8 27.5-17.7-8.5 0.5-18.2 7.6-27.5 5.8 11.2-5.5 28.1-7.4 28-22.9-6.8 0.7-14.7 7.9-21.9 6.9 30.6-18.6 61.1-42.4 81.2-73.8 8.8-13.5 24.9-40 9-55.8q-0.5 0-1.2 0c0 0.6-0.5 0.6-0.3 1.2-2.1 21.8-10.3 42-20.2 57.5-9.6 15.2-21.2 28.4-34.4 39.4-13.4 11.2-29.4 20.1-42.6 31.1-7.4 6.1-11.2 12.4-14.8 22.1-3.5 9.5-7.5 18.3-14.3 22.5-2.3 1.4-5.7 3.9-9.1 2.1 2.8-3.2 6-4.3 7.8-6.5 3.7-4.5 5.9-12.4 8.3-20.2 2.2-7.2 4.9-14 8.5-20 12.9-21.5 40.5-36.8 57.8-56.6 8.7-10 18.6-22.3 19.7-37.7 0.9-12.3-4.1-17.5-13.1-19.7 0.6 4.2 3.6 7.9 2.8 14.7-1.3 13.7-12.3 28.6-20 38.2-8.6 10.5-19 19.6-29.5 28.6-9.9 8.6-21.9 17.9-28.4 30.1-3 5.7-5.5 15-7.4 21.7-0.9 4.1-3.1 20.3-8.9 20-3.4-0.1-5-7.7-4.9-13.1 0.3-27.7 26.2-39.9 35.2-58.2 0.8-1.7 1.9-5.1 2-7.4 1-9.4-4-12.8-8.1-16.8 11.9 1.6 27.4 0.8 26.6-11.5-2 0.7-3.2 2.9-5.8 3.8-17.2 5.6-46.7-20.9-59.3-5.4-1.6 0.7 0.8 3.3-0.5 3.7-3.2 0-6.5-0.1-9.1 0.4-0.7-2.4-1.6-4.5-2.4-6.9-1.7 0.6-4.2 0.4-5.8 1.2 1.4 1.8 2.7 3.5 2.9 6.5-6.4 1.7-12.4 4-13.5 11.1 4.2-1.4 9.7-3.7 14.4-3.3 0 3-0.6 5.5-1.7 7.4-1.1 1.3-5.7-0.7-6.1 1.2-0.3 3.1 3.6 2 4 4.1-1.2 2.5-2.6 4.7-4.4 6.5-6-7.2-13.3-0.3-19.7 1.3-1.6 0.4-2.8-0.1-4.1 0.8 5 8.8 14.5 0.2 22.1-0.4-2.2 4.8-13.3 6.4-15.1 12.3-1.4 4.3 0.5 9.4 6.5 9.4-1.5-5.3 5.5-7.5 7-11.5 0.5-1.3-0.4-3.2 0-4.4 0.8-2.1 3.3-1.8 4.5-3.3 1.5 11.3 19.8 10.6 20.1-1.3-2.7 1.1-3.6 3.1-6.1 2.9-3.2-0.4-5.6-6.8-11.5-4.5 2.5-2.6 3.9-6.4 6.5-9 9.8-1.3 24.5-6 28.3 4.5 0.9 2.4 0.8 6.5-0.4 9.5-2.8 7-11.7 13.3-18 18.3-19.4 15.6-44.6 32.5-46.8 63.6-2 28.1 12.9 44.4 29.9 54.6 16.4 9.7 34.6 14.1 56.2 17.6 3.8 8 5 21.8 1.3 30.8 4.4-0.9 6.9-5.9 9.8-7 2.1 16.2 5.8 30.8 11 43.4 1.8 4.2 5 8 5 12.7-7.9 2.5-24.5-10.2-26.7 2-7.3-1.7-12.5 5.5-7.7 9.5 2.4-2.7 5-5.2 10.6-4.9-3.6 2-6.6 10.1 0.8 10.3 0.5-1.3 1.1-2.6 2.1-3.8 6.4-6.6 35.6-5.8 47.5-3.2 2.7 0.5 4.7 3.9 6.2 4.5 2.2-1.9 5.8-3.6 4.9-7.8-1.7-7.6-16.4-1.8-22.9-5.3zm-103.4-9.7c0.6-4.6-0.1-10.8 4.5-13.7 2-1.2 4.1-0.4 8.3-1 3.8-0.4 1.1-5.9 5.5-9.6 2.1-1.7 4.8-1.8 7-2.3-3.9-3.9-8.8-6.9-14.2-8.5q-0.4 0.1-0.8 0.2c-5.5 1.5-11 5.4-15.2 10.4-4.2 4.9-7 10.9-7.1 16.8-0.3 8.4 5.5 12.6 12 7.7zm9.8 29.3c0.3-0.2 0.6-0.4 0.9-0.6 3.3-2.3 2.4-7.6 0.1-10.2-3.4-0.2-8.1 4-15.8 5.2-7.2 1.2-9.6-0.9-15.7-1.9 5.9 5.3 13.7 8.5 22.3 8.5 2.8 0 5.5-0.4 8.2-1zm18-53.1c-1.8 0.3-3.5 0.5-4.9 0.9-8.3 2.6-4.7 9.4-0.4 13.9 8.4 8.7 5.7 16.2 8.4 21.1q0.4-0.2 0.9-0.8c2-4.4 3.2-9.3 3.2-14.4 0-7.8-2.7-15-7.2-20.7zm0.3 41v-0.1c0.4-1.4 0.2-3.3-0.2-7.5-0.8-8.2-6.3-17.6-12.1-20.3-4-1.9-10.2-2-11.1 3-1.3 7.5 1 7.1 4.6 10.8 3.7 3.7 2.4 6.8 3.7 12.8 0.5 2.1 2 3.1 2.5 5.9 0.3 2.2-0.4 4-0.9 5.9 5.4-2.3 10-6 13.5-10.5zm-59.7-24c0.9 2.7 3.6 4.3 9 3.6 12.4-1.6 2.6-16.2 24.9-29.7 1.4-0.8 3.7-1.8 4.7-3.1q-2.6-0.4-5.4-0.4c-17.2 0-31.3 12.9-33.2 29.6zm23.6 11.5c-4.9-1.7-4.7-4-7.6-7.3-3.1 0.9-4.7 2.9-8.5 2.8-3.9 0-5.2-2.2-7.7-2.6 0.2 7.2 2.6 13.8 6.6 19.2 0.6 0.5 1.2 0.9 1.8 1.2 3.6 1.6 8.3 2.5 13 2.6 4.7 0.1 19.9-1.8 19.8-8.2 0-3.3-2.9-8-5.5-9.1-3.2-1.3-6.5 3.3-11.9 1.4zm-19.9-34.5c3.4-1.3 15.7-15.9 38.9-11.6 23 4.4 23.3 18.9 27.8 23.5 3.1-2.8 2.9-8.7 1-12.4-1.7-3.3-4.8-5.8-7-9.2-5-8 4-20.6 8.7-21.7 1.6 2.3 2.5 4.2 4.8 6.2 2 1.8 6.7 7.6 10.3 8.3l-5.1-22.3c-4.8-0.9-14.6-2.3-19.1-4.3-3.2-1.5-5.6-4.4-8.8-1.4-1.4 1.3-6.3 5.2-6.8 6.1 2.1 1.2 8.9 0.9 12.4 2.8-0.9 4.3-8.6 10.2-12.9 12.1-6.5 2.9-14.9 2.7-22.4 2.3-6.4-0.4-13.9-2.3-17.5 5.1-1.1 2.2 0.3 3-1.4 5.2-2.2 2.7-7.4 5.1-2.9 11.3zm141.1-174.1c1.9 3.8 1.4 10.1-0.8 13.2 23.5-13.4 46.7-28.7 62.3-49.7 5.2-7 11.3-15.1 11.9-25q-0.4 0-0.8 0c-20.2 24.6-44.2 45.2-72.6 61.5zm32.4-28c9.1-6 18-14.5 27-24.1 9.4-10 23.4-23.7 17.3-41.4-0.6-0.1-0.6-0.6-1.2-0.5-8.7 23.9-22.1 42.6-37.8 58.7-2 2-5.3 4-5.3 7.3zm-64.7 111.9c-0.5 0-0.9 0-1.4 0 0.1 0.6 0 1.3 0.5 1.3 10.8 9.7 25.7 18.7 36.1 32 12.8 16.6 23.3 41 15.1 66.5 4.6-3.9 7.9-10.2 10.3-16.1 2.5-6.2 4.5-13.9 4.5-22.1 0.3-40.9-36.2-50-65.1-61.6zm53.2-25.3c0-0.7-0.3-1.1-0.8-1.2-9 5-18.5 9.4-30.8 10.9 4.4 1.7 16.7 4.1 22.6 1.7 4.7-1.8 5.9-8.7 9-11.4zm-29.5-7c0.5 8.7-5.4 10.8-9.9 14.4 13.1-0.8 24.1-5.6 32.8-11.1 8.7-5.4 17.9-11.9 21.7-22.1-0.2 0-0.5 0-0.8 0-12.3 8.6-25.9 15.8-43.8 18.8zm6.1-17.6c0.3 2.8 0 5.7-1.1 8.2-1.3 2.5-4.9 3.8-3.8 5.7 12.5-3 23.5-8.5 32.8-15.1 8.9-6.4 18.5-14.3 21.3-26.7q-0.4 0-0.8 0c-13.7 11.8-29.4 21.4-48.4 27.9zm2.5-16.9c2 5.7-2 10.6-2.5 13.6 19.7-8.2 37.9-20.2 50.8-35.7 4.2-4.9 10.2-11.1 8.7-18.8-16.4 16.3-34.7 30.6-57 40.9zm-28.2-23.3c-3.6 3.1-8.1 5.8-9.6 10.7 4.6-0.6 7.9-4.6 11.6-7.4 19.8-14.9 38.7-27 53.7-46.8 7.5-10 20-28.3 8.2-40.6q-0.4 0-0.9 0c0 0.4 0 0.9 0 1.3 0.3 13.3-5.8 23.8-12.2 33.2-14.1 20.3-33.4 34-50.8 49.6zm-71-34c0.8-2.1 0.9-5 1.6-7.4 3.6 0 7.3-0.1 9.4 1.3-0.1 5.6-6.7 4.6-11 6.1zm-9.9 100.4c-1.6-19.5 8.1-35.2 20.2-44.6 0.4-0.1 0.6 0.1 0.7 0.3-5.5 11.1-12 20.8-11 37.8 0.9 18.3 10.2 32.7 20.9 42.2 3.6 3.2 8.5 5 11 9.1-20.4-6.4-39.6-20.3-41.8-44.8zm27.5-111.5c0-1.1 0-2.2 0-3.2 4.9 0.2 9.1 1.2 13.1 2.4-3.5 1.2-10.1 4-13.1 0.8z"/>
	</g>
</svg>